<mxfile host="app.diagrams.net" modified="2024-01-15T09:28:42.754Z" agent="Mozilla/5.0 (Windows NT 10.0; Win64; x64) AppleWebKit/537.36 (KHTML, like Gecko) Chrome/120.0.0.0 Safari/537.36" etag="k67iQQQeG_1IGUHsGSuw" version="22.1.18" type="device">
  <diagram id="prtHgNgQTEPvFCAcTncT" name="Page-1">
    <mxGraphModel dx="1195" dy="650" grid="1" gridSize="10" guides="1" tooltips="1" connect="1" arrows="1" fold="1" page="1" pageScale="1" pageWidth="827" pageHeight="1169" math="0" shadow="0">
      <root>
        <mxCell id="0" />
        <mxCell id="1" parent="0" />
        <mxCell id="dNxyNK7c78bLwvsdeMH5-19" value="Pool" style="swimlane;html=1;childLayout=stackLayout;resizeParent=1;resizeParentMax=0;horizontal=0;startSize=20;horizontalStack=0;" parent="1" vertex="1">
          <mxGeometry x="120" y="120" width="460" height="360" as="geometry">
            <mxRectangle x="120" y="120" width="40" height="60" as="alternateBounds" />
          </mxGeometry>
        </mxCell>
        <mxCell id="dNxyNK7c78bLwvsdeMH5-27" value="" style="edgeStyle=orthogonalEdgeStyle;rounded=0;orthogonalLoop=1;jettySize=auto;html=1;dashed=1;endArrow=none;endFill=0;" parent="dNxyNK7c78bLwvsdeMH5-19" source="dNxyNK7c78bLwvsdeMH5-24" target="dNxyNK7c78bLwvsdeMH5-26" edge="1">
          <mxGeometry relative="1" as="geometry" />
        </mxCell>
        <mxCell id="dNxyNK7c78bLwvsdeMH5-31" style="edgeStyle=orthogonalEdgeStyle;rounded=0;orthogonalLoop=1;jettySize=auto;html=1;endArrow=classic;endFill=1;" parent="dNxyNK7c78bLwvsdeMH5-19" source="dNxyNK7c78bLwvsdeMH5-28" target="dNxyNK7c78bLwvsdeMH5-30" edge="1">
          <mxGeometry relative="1" as="geometry" />
        </mxCell>
        <mxCell id="bDujF7_XZa-81XSd-q1V-2" value="เปลี่ยน" style="edgeLabel;html=1;align=center;verticalAlign=middle;resizable=0;points=[];" vertex="1" connectable="0" parent="dNxyNK7c78bLwvsdeMH5-31">
          <mxGeometry x="-0.3878" y="-1" relative="1" as="geometry">
            <mxPoint as="offset" />
          </mxGeometry>
        </mxCell>
        <mxCell id="dNxyNK7c78bLwvsdeMH5-35" style="edgeStyle=orthogonalEdgeStyle;rounded=0;orthogonalLoop=1;jettySize=auto;html=1;endArrow=classic;endFill=1;" parent="dNxyNK7c78bLwvsdeMH5-19" source="dNxyNK7c78bLwvsdeMH5-28" target="dNxyNK7c78bLwvsdeMH5-34" edge="1">
          <mxGeometry relative="1" as="geometry" />
        </mxCell>
        <mxCell id="bDujF7_XZa-81XSd-q1V-3" value="ไม่เปลี่ยน" style="edgeLabel;html=1;align=center;verticalAlign=middle;resizable=0;points=[];" vertex="1" connectable="0" parent="dNxyNK7c78bLwvsdeMH5-35">
          <mxGeometry x="-0.4762" y="2" relative="1" as="geometry">
            <mxPoint as="offset" />
          </mxGeometry>
        </mxCell>
        <mxCell id="dNxyNK7c78bLwvsdeMH5-20" value="Custumer" style="swimlane;html=1;startSize=20;horizontal=0;" parent="dNxyNK7c78bLwvsdeMH5-19" vertex="1">
          <mxGeometry x="20" width="440" height="120" as="geometry" />
        </mxCell>
        <mxCell id="dNxyNK7c78bLwvsdeMH5-25" value="" style="edgeStyle=orthogonalEdgeStyle;rounded=0;orthogonalLoop=1;jettySize=auto;html=1;" parent="dNxyNK7c78bLwvsdeMH5-20" source="dNxyNK7c78bLwvsdeMH5-23" target="dNxyNK7c78bLwvsdeMH5-24" edge="1">
          <mxGeometry relative="1" as="geometry" />
        </mxCell>
        <mxCell id="dNxyNK7c78bLwvsdeMH5-23" value="" style="ellipse;whiteSpace=wrap;html=1;" parent="dNxyNK7c78bLwvsdeMH5-20" vertex="1">
          <mxGeometry x="40" y="40" width="40" height="40" as="geometry" />
        </mxCell>
        <mxCell id="dNxyNK7c78bLwvsdeMH5-24" value="เลือกซื้อสินค้า" style="rounded=0;whiteSpace=wrap;html=1;fontFamily=Helvetica;fontSize=12;fontColor=#000000;align=center;" parent="dNxyNK7c78bLwvsdeMH5-20" vertex="1">
          <mxGeometry x="120" y="30" width="80" height="60" as="geometry" />
        </mxCell>
        <mxCell id="dNxyNK7c78bLwvsdeMH5-33" value="" style="edgeStyle=orthogonalEdgeStyle;rounded=0;orthogonalLoop=1;jettySize=auto;html=1;endArrow=classic;endFill=1;" parent="dNxyNK7c78bLwvsdeMH5-20" source="dNxyNK7c78bLwvsdeMH5-30" target="dNxyNK7c78bLwvsdeMH5-32" edge="1">
          <mxGeometry relative="1" as="geometry" />
        </mxCell>
        <mxCell id="dNxyNK7c78bLwvsdeMH5-30" value="เลือกรายการสินค้าใหม่" style="rounded=0;whiteSpace=wrap;html=1;fontFamily=Helvetica;fontSize=12;fontColor=#000000;align=center;" parent="dNxyNK7c78bLwvsdeMH5-20" vertex="1">
          <mxGeometry x="240" y="30" width="80" height="60" as="geometry" />
        </mxCell>
        <mxCell id="dNxyNK7c78bLwvsdeMH5-32" value="" style="ellipse;whiteSpace=wrap;html=1;" parent="dNxyNK7c78bLwvsdeMH5-20" vertex="1">
          <mxGeometry x="360" y="40" width="40" height="40" as="geometry" />
        </mxCell>
        <mxCell id="dNxyNK7c78bLwvsdeMH5-21" value="Order" style="swimlane;html=1;startSize=20;horizontal=0;" parent="dNxyNK7c78bLwvsdeMH5-19" vertex="1">
          <mxGeometry x="20" y="120" width="440" height="120" as="geometry" />
        </mxCell>
        <mxCell id="dNxyNK7c78bLwvsdeMH5-29" value="" style="edgeStyle=orthogonalEdgeStyle;rounded=0;orthogonalLoop=1;jettySize=auto;html=1;endArrow=classic;endFill=1;" parent="dNxyNK7c78bLwvsdeMH5-21" source="dNxyNK7c78bLwvsdeMH5-26" target="dNxyNK7c78bLwvsdeMH5-28" edge="1">
          <mxGeometry relative="1" as="geometry" />
        </mxCell>
        <mxCell id="dNxyNK7c78bLwvsdeMH5-26" value="เพิ่มสินค้าลงในตะกร้า" style="rounded=0;whiteSpace=wrap;html=1;fontFamily=Helvetica;fontSize=12;fontColor=#000000;align=center;" parent="dNxyNK7c78bLwvsdeMH5-21" vertex="1">
          <mxGeometry x="120" y="30" width="80" height="60" as="geometry" />
        </mxCell>
        <mxCell id="dNxyNK7c78bLwvsdeMH5-28" value="" style="rhombus;whiteSpace=wrap;html=1;fontFamily=Helvetica;fontSize=12;fontColor=#000000;align=center;" parent="dNxyNK7c78bLwvsdeMH5-21" vertex="1">
          <mxGeometry x="260" y="40" width="40" height="40" as="geometry" />
        </mxCell>
        <mxCell id="dNxyNK7c78bLwvsdeMH5-22" value="Orderdetail" style="swimlane;html=1;startSize=20;horizontal=0;" parent="dNxyNK7c78bLwvsdeMH5-19" vertex="1">
          <mxGeometry x="20" y="240" width="440" height="120" as="geometry" />
        </mxCell>
        <mxCell id="dNxyNK7c78bLwvsdeMH5-34" value="รายละเอียดสินค้า" style="rounded=0;whiteSpace=wrap;html=1;fontFamily=Helvetica;fontSize=12;fontColor=#000000;align=center;" parent="dNxyNK7c78bLwvsdeMH5-22" vertex="1">
          <mxGeometry x="240" y="30" width="80" height="60" as="geometry" />
        </mxCell>
        <mxCell id="bDujF7_XZa-81XSd-q1V-5" value="item" style="swimlane;html=1;startSize=20;horizontal=0;" vertex="1" parent="1">
          <mxGeometry x="140" y="480" width="440" height="120" as="geometry" />
        </mxCell>
        <mxCell id="bDujF7_XZa-81XSd-q1V-17" value="" style="edgeStyle=orthogonalEdgeStyle;rounded=0;orthogonalLoop=1;jettySize=auto;html=1;" edge="1" parent="bDujF7_XZa-81XSd-q1V-5" source="bDujF7_XZa-81XSd-q1V-14" target="bDujF7_XZa-81XSd-q1V-16">
          <mxGeometry relative="1" as="geometry" />
        </mxCell>
        <mxCell id="bDujF7_XZa-81XSd-q1V-14" value="จำนวนการสั่งซื้อสิ้นค้า" style="rounded=0;whiteSpace=wrap;html=1;fontFamily=Helvetica;fontSize=12;fontColor=#000000;align=center;" vertex="1" parent="bDujF7_XZa-81XSd-q1V-5">
          <mxGeometry x="80" y="20" width="80" height="60" as="geometry" />
        </mxCell>
        <mxCell id="bDujF7_XZa-81XSd-q1V-16" value="ตรวจสอบสินค้า" style="rounded=0;whiteSpace=wrap;html=1;fontFamily=Helvetica;fontSize=12;fontColor=#000000;align=center;" vertex="1" parent="bDujF7_XZa-81XSd-q1V-5">
          <mxGeometry x="274" y="20" width="80" height="60" as="geometry" />
        </mxCell>
        <mxCell id="bDujF7_XZa-81XSd-q1V-9" value="Payment" style="swimlane;html=1;startSize=20;horizontal=0;" vertex="1" parent="1">
          <mxGeometry x="140" y="600" width="444" height="340" as="geometry" />
        </mxCell>
        <mxCell id="bDujF7_XZa-81XSd-q1V-21" value="" style="edgeStyle=orthogonalEdgeStyle;rounded=0;orthogonalLoop=1;jettySize=auto;html=1;" edge="1" parent="bDujF7_XZa-81XSd-q1V-9" source="bDujF7_XZa-81XSd-q1V-18" target="bDujF7_XZa-81XSd-q1V-20">
          <mxGeometry relative="1" as="geometry" />
        </mxCell>
        <mxCell id="bDujF7_XZa-81XSd-q1V-18" value="การยืนยันการสั่งศื้อ" style="rounded=0;whiteSpace=wrap;html=1;fontFamily=Helvetica;fontSize=12;fontColor=#000000;align=center;" vertex="1" parent="bDujF7_XZa-81XSd-q1V-9">
          <mxGeometry x="179" y="30" width="80" height="60" as="geometry" />
        </mxCell>
        <mxCell id="bDujF7_XZa-81XSd-q1V-20" value="วิธีการชำระเงิน" style="rounded=0;whiteSpace=wrap;html=1;fontFamily=Helvetica;fontSize=12;fontColor=#000000;align=center;" vertex="1" parent="bDujF7_XZa-81XSd-q1V-9">
          <mxGeometry x="270" y="100" width="80" height="60" as="geometry" />
        </mxCell>
        <mxCell id="bDujF7_XZa-81XSd-q1V-25" value="" style="edgeStyle=orthogonalEdgeStyle;rounded=0;orthogonalLoop=1;jettySize=auto;html=1;entryX=0.436;entryY=-0.095;entryDx=0;entryDy=0;entryPerimeter=0;" edge="1" parent="bDujF7_XZa-81XSd-q1V-9" source="bDujF7_XZa-81XSd-q1V-22" target="bDujF7_XZa-81XSd-q1V-27">
          <mxGeometry relative="1" as="geometry">
            <mxPoint x="170" y="250" as="targetPoint" />
          </mxGeometry>
        </mxCell>
        <mxCell id="bDujF7_XZa-81XSd-q1V-29" value="" style="edgeStyle=orthogonalEdgeStyle;rounded=0;orthogonalLoop=1;jettySize=auto;html=1;" edge="1" parent="bDujF7_XZa-81XSd-q1V-9" source="bDujF7_XZa-81XSd-q1V-22" target="bDujF7_XZa-81XSd-q1V-28">
          <mxGeometry relative="1" as="geometry" />
        </mxCell>
        <mxCell id="bDujF7_XZa-81XSd-q1V-31" value="" style="edgeStyle=orthogonalEdgeStyle;rounded=0;orthogonalLoop=1;jettySize=auto;html=1;" edge="1" parent="bDujF7_XZa-81XSd-q1V-9" source="bDujF7_XZa-81XSd-q1V-22" target="bDujF7_XZa-81XSd-q1V-30">
          <mxGeometry relative="1" as="geometry" />
        </mxCell>
        <mxCell id="bDujF7_XZa-81XSd-q1V-22" value="" style="rhombus;whiteSpace=wrap;html=1;fontColor=#000000;rounded=0;" vertex="1" parent="bDujF7_XZa-81XSd-q1V-9">
          <mxGeometry x="294.5" y="200" width="31" height="30" as="geometry" />
        </mxCell>
        <mxCell id="bDujF7_XZa-81XSd-q1V-23" value="" style="edgeStyle=orthogonalEdgeStyle;rounded=0;orthogonalLoop=1;jettySize=auto;html=1;" edge="1" parent="bDujF7_XZa-81XSd-q1V-9" source="bDujF7_XZa-81XSd-q1V-20" target="bDujF7_XZa-81XSd-q1V-22">
          <mxGeometry relative="1" as="geometry" />
        </mxCell>
        <mxCell id="bDujF7_XZa-81XSd-q1V-27" value="เงินสด" style="rounded=0;whiteSpace=wrap;html=1;" vertex="1" parent="bDujF7_XZa-81XSd-q1V-9">
          <mxGeometry x="192" y="290" width="60" height="30" as="geometry" />
        </mxCell>
        <mxCell id="bDujF7_XZa-81XSd-q1V-28" value="เครดิต" style="whiteSpace=wrap;html=1;fontColor=#000000;rounded=0;" vertex="1" parent="bDujF7_XZa-81XSd-q1V-9">
          <mxGeometry x="267" y="290" width="86" height="30" as="geometry" />
        </mxCell>
        <mxCell id="bDujF7_XZa-81XSd-q1V-30" value="เช็ค" style="whiteSpace=wrap;html=1;fontColor=#000000;rounded=0;" vertex="1" parent="bDujF7_XZa-81XSd-q1V-9">
          <mxGeometry x="370" y="290" width="60" height="30" as="geometry" />
        </mxCell>
        <mxCell id="bDujF7_XZa-81XSd-q1V-12" style="edgeStyle=orthogonalEdgeStyle;rounded=0;orthogonalLoop=1;jettySize=auto;html=1;entryX=0.5;entryY=0;entryDx=0;entryDy=0;" edge="1" parent="1" source="dNxyNK7c78bLwvsdeMH5-34" target="bDujF7_XZa-81XSd-q1V-14">
          <mxGeometry relative="1" as="geometry">
            <mxPoint x="300" y="550" as="targetPoint" />
          </mxGeometry>
        </mxCell>
        <mxCell id="bDujF7_XZa-81XSd-q1V-19" value="" style="edgeStyle=orthogonalEdgeStyle;rounded=0;orthogonalLoop=1;jettySize=auto;html=1;" edge="1" parent="1" source="bDujF7_XZa-81XSd-q1V-16" target="bDujF7_XZa-81XSd-q1V-18">
          <mxGeometry relative="1" as="geometry" />
        </mxCell>
      </root>
    </mxGraphModel>
  </diagram>
</mxfile>
